<svg xmlns="http://www.w3.org/2000/svg" width="172" height="72" viewBox="0 0 172 72">
  <metadata><?xpacket begin="﻿" id="W5M0MpCehiHzreSzNTczkc9d"?>
<x:xmpmeta xmlns:x="adobe:ns:meta/" x:xmptk="Adobe XMP Core 5.6-c138 79.159824, 2016/09/14-01:09:01        ">
   <rdf:RDF xmlns:rdf="http://www.w3.org/1999/02/22-rdf-syntax-ns#">
      <rdf:Description rdf:about=""/>
   </rdf:RDF>
</x:xmpmeta>
                                                                                                    
                                                                                                    
                                                                                                    
                                                                                                    
                                                                                                    
                                                                                                    
                                                                                                    
                                                                                                    
                                                                                                    
                                                                                                    
                                                                                                    
                                                                                                    
                                                                                                    
                                                                                                    
                                                                                                    
                                                                                                    
                                                                                                    
                                                                                                    
                                                                                                    
                                                                                                    
                           
<?xpacket end="w"?></metadata>
<defs>
    <style>
      .cls-1 {
        fill: #fff;
        fill-rule: evenodd;
      }
    </style>
  </defs>
  <path class="cls-1" d="M370.209,73.856c3.433,0,5.143,2.043,5.143,4.831s-1.71,4.83-5.143,4.83h-3.2V73.856h3.2Zm0,1.1H368.18v7.453h2.029c2.627,0,3.961-1.407,3.961-3.726S372.836,74.96,370.209,74.96Zm5.5,8.557,4.239-9.661h1.292l4.226,9.661h-1.251l-1-2.332h-5.24l-1,2.332h-1.265Zm2.724-3.409h4.322l-2.015-4.692c-0.055-.124-0.1-0.235-0.153-0.373-0.055.138-.1,0.248-0.153,0.373Zm12.478-6.418a5,5,0,1,1-5.086,5A4.833,4.833,0,0,1,390.913,73.69Zm0,1.1a3.892,3.892,0,1,0,3.906,3.892A3.7,3.7,0,0,0,390.913,74.794ZM317.7,69.286a9.023,9.023,0,0,1,4.267,1.019v1.679a7.839,7.839,0,0,0-4.146-1.1c-1.852,0-3.241.54-3.241,2.039,0,3.538,8.394,2.019,8.394,7.035,0,2.779-2.516,3.817-5.213,3.8a9.874,9.874,0,0,1-4.831-1.2V80.879a8.994,8.994,0,0,0,4.71,1.279c1.952,0,3.623-.5,3.623-2.078,0-3.757-8.393-2.179-8.393-7.1C312.874,70.486,315.148,69.286,317.7,69.286Zm11.914,4.4a5.038,5.038,0,1,1-5.153,5.037A4.913,4.913,0,0,1,329.618,73.683Zm0,1.519a3.518,3.518,0,1,0,3.542,3.518A3.358,3.358,0,0,0,329.618,75.2Zm9.115-6.276v14.59h-1.61V68.927h1.61Zm11.613,13.331a2.448,2.448,0,0,0,.744-0.14v1.3a3.571,3.571,0,0,1-1.208.22,1.711,1.711,0,0,1-1.771-1.16,5.7,5.7,0,0,1-3.764,1.28c-1.71,0-3.4-.9-3.4-2.918,0-2.479,2.294-3.238,4.368-3.238a13.242,13.242,0,0,1,2.677.3v-0.34c0-1.439-.987-2.4-2.758-2.4a8.919,8.919,0,0,0-3.522.719V74.323a11.523,11.523,0,0,1,3.683-.64c2.576,0,4.207,1.4,4.207,4.077v3.758A0.649,0.649,0,0,0,350.346,82.258Zm-5.657.12a4.57,4.57,0,0,0,3.3-1.4V79.22a13.578,13.578,0,0,0-2.456-.28c-1.409,0-2.939.42-2.939,1.819C342.6,81.878,343.623,82.378,344.689,82.378Zm13.625-8.654v1.6a3.619,3.619,0,0,0-4.006,2.219v5.976H352.7V73.923h1.449v1.7A4.522,4.522,0,0,1,358.314,73.723ZM235.9,83.562l-8.518-31.193c-0.136.215-.267,0.434-0.4,0.654l8.008,30.037Q235.44,83.321,235.9,83.562Zm-2.757-1.707-6.234-28.7q-0.211.369-.41,0.746l5.751,27.271Q232.687,81.526,233.142,81.855Zm7.014,9.7,0.155,0.479c-0.008-.133-0.02-0.265-0.02-0.4V91.559h-0.135Zm-2.3-7.092c0.3,0.121.6,0.238,0.91,0.346L227.821,51.692c-0.133.194-.258,0.393-0.385,0.591Zm2.944,0.958c0.3,0.075.6,0.145,0.9,0.208L228.24,51.108c-0.129.176-.258,0.352-0.381,0.531Zm-10.258-5.768L226.391,54.11q-0.224.438-.428,0.888l3.714,23.749Q230.1,79.213,230.545,79.657Zm-6.152,11.9H224v0.079a22.224,22.224,0,0,0,.406,4.211Zm19.384-5.605c0.293,0.032.589,0.055,0.885,0.075L228.639,50.58q-0.191.245-.375,0.494Zm-19.456-18.2-0.022-7.3A21.647,21.647,0,0,0,224.321,67.754Zm2.747,23.805H226.28l0.543,10.9q0.44,0.784.939,1.531ZM225.278,71.4q0.342,0.955.769,1.867l-0.9-16.2c-0.186.553-.352,1.114-0.494,1.685Zm2.88,5.459-2.345-21.537c-0.161.37-.315,0.743-0.455,1.122l1.972,19.188Q227.723,76.266,228.158,76.864ZM229.4,49.653l23.672,36.435h0.96L242.559,68.655a5.874,5.874,0,0,1-2.076-3.154L229.856,49.358l10.451,14.374a5.8,5.8,0,0,1,.119-0.929L230.294,49.042l10.414,12.849a5.89,5.89,0,0,1,.3-0.645L230.715,48.7,241.43,60.593a5.865,5.865,0,0,1,.409-0.5L231.117,48.344l11.251,11.24a6.036,6.036,0,0,1,.509-0.39L231.5,47.965,243.551,58.8a5.849,5.849,0,0,1,.648-0.276L231.862,47.565,245.105,58.28a5.945,5.945,0,0,1,.908-0.1L232.2,47.147l15.189,11.028h1.118L232.521,46.712l17.658,11.462h1.233L232.964,46.356A22.319,22.319,0,0,0,229.4,49.653Zm17.345,36.435h0.882L229.024,50.094c-0.127.153-.248,0.311-0.37,0.467Zm6.7-27.913h1.377L233.458,46.008c-0.163.114-.327,0.226-0.487,0.344ZM232.481,91.559h-0.8l2.984,19.081c0.333,0.2.671,0.4,1.015,0.591Zm-2.723,0h-0.791l1.632,15.879c0.319,0.317.651,0.622,0.989,0.92Zm33.8-21.648,31.6,22.94c0.012-.3.023-0.6,0.023-0.9,0-.111-0.007-0.221-0.008-0.331L264.88,69.911h-1.323Zm6.854-11.736L235.235,44.887c-0.2.116-.409,0.231-0.609,0.353l33.633,12.935h2.152ZM257.006,69.911H255.9l18.086,16.269a5.894,5.894,0,0,1,2.661,1.185ZM256.56,86.088h1.011l-11.932-16.2a5.875,5.875,0,0,1-1-.185Zm-6.744,0h0.919L229.4,49.653c-0.125.144-.252,0.286-0.373,0.434Zm-1.7-16.177h-0.907l13.111,16.177h1.07Zm5.619,0h-1.029L268.9,86.088h1.224Zm-2.943,0h-0.963l14.58,16.177h1.14Zm-14.8-25.434q-0.339.175-.671,0.361l59.855,19.51c0-.328-0.011-0.654-0.025-0.978Zm-1.42.8c-0.185.114-.368,0.232-0.55,0.351l28.158,12.55h1.811Zm26.114,24.637h-1.2L294.3,98.08q0.156-.534.285-1.08Zm-26.7-24.264c-0.172.113-.342,0.23-0.511,0.348l23.895,12.18h1.563Zm35.745,24.265H268.26l26.347,17.1c-0.11-.474-0.233-0.944-0.373-1.406Zm6.025,0.179c-0.638-.08-1.285-0.133-1.939-0.158l18.006,10.395q-0.59-.939-1.269-1.812Zm2.118-9.1a6.133,6.133,0,0,1,.571,1.1l6.411,2.466h2.453ZM241.706,42.453c-0.556.114-1.1,0.254-1.643,0.409L288,48.009c-0.365-.338-0.739-0.665-1.126-0.979Zm-4.819,1.586c-0.257.118-.51,0.242-0.762,0.37L294.78,60.2q-0.1-.505-0.215-1ZM251.3,42h-5.1a22.434,22.434,0,0,0-2.93.2l39.457,2.172a22.4,22.4,0,0,0-2.138-.933ZM238,43.565q-0.454.181-.9,0.381l56.458,12.093q-0.209-.512-0.44-1.012Zm1.462-.524c-0.382.121-.759,0.254-1.132,0.395l53.047,8.505q-0.345-.513-0.719-1.005Zm38.949,51.224a5.8,5.8,0,0,1-.464.859l11.552,11.54q0.348-.384.678-0.785Zm-20.8,3.559h-1.013L265.933,114h1.143Zm-11.146,0a6.264,6.264,0,0,1-.941-0.085L251.75,114h1.021Zm30.727-9.975a5.862,5.862,0,0,1,1.479,2.546L292.35,102.7q0.261-.461.5-0.935Zm-27.194,9.978h-0.937L256.25,114h1.055Zm-11.91-6.264h-0.824l5.916,22.193c0.332,0.049.667,0.092,1,.127Zm4.533,4.892a6.255,6.255,0,0,1-1.377-1.548l6.185,19.1h0.993ZM253.7,97.823h-0.972L260.964,114h1.1ZM235.25,91.559h-0.81l4.453,21.118q0.5,0.181,1.018.339Zm26.511,6.264H260.7L271.209,114h1.2Zm13.9-.648a5.892,5.892,0,0,1-.92.38l11.118,12.335q0.425-.3.834-0.622Zm-4.645.648h-1.187l11.722,14.464q0.5-.207.976-0.436Zm-4.806,0h-1.119l11.54,15.873q0.56-.093,1.109-0.213Z" transform="translate(-224 -42)"/>
</svg>
