<?xml version="1.0" encoding="utf-8"?>
<!-- Generator: Adobe Illustrator 21.1.0, SVG Export Plug-In . SVG Version: 6.00 Build 0)  -->
<svg version="1.1" id="Layer_1" xmlns="http://www.w3.org/2000/svg" xmlns:xlink="http://www.w3.org/1999/xlink" x="0px" y="0px"
	 viewBox="0 0 35.2 35.2" style="enable-background:new 0 0 35.2 35.2;" xml:space="preserve">
<style type="text/css">
	.st0{fill:#F4DD4C;}
</style>
<g>
	<path class="st0" d="M17.6,0C7.8,0,0,7.8,0,17.6c0,9.8,7.8,17.6,17.6,17.6c9.8,0,17.6-7.8,17.6-17.6C35.2,7.8,27.4,0,17.6,0L17.6,0
		z M19.2,27.2c0,0.5-0.3,0.8-0.8,0.8h-1.6c-0.5,0-0.8-0.3-0.8-0.8v-1.6c0-0.5,0.3-0.8,0.8-0.8h1.6c0.5,0,0.8,0.3,0.8,0.8V27.2z
		 M21.4,20.1c-1.1,1-1.9,1.6-2.2,2.5c-0.1,0.4-0.4,0.6-0.8,0.6h-1.6c-0.5,0-0.9-0.4-0.8-0.9c0.3-2.3,2-3.6,3.4-4.7
		c1.4-1.1,2.2-1.8,2.2-3.2c0-2.2-1.8-4-4-4c-2.2,0-4,1.8-4,4v0.5c0.1,0.4-0.2,0.8-0.6,0.9l-1.5,0.5c-0.5,0.2-1-0.2-1-0.6
		c-0.1-0.4-0.1-0.8-0.1-1.2c0-4,3.2-7.2,7.2-7.2s7.2,3.2,7.2,7.2C24.8,17.4,22.9,18.9,21.4,20.1L21.4,20.1z M21.4,20.1"/>
</g>
</svg>
