<?xml version="1.0" encoding="utf-8"?>
<!-- Generator: Adobe Illustrator 21.1.0, SVG Export Plug-In . SVG Version: 6.00 Build 0)  -->
<svg version="1.1" id="Layer_1" xmlns="http://www.w3.org/2000/svg" xmlns:xlink="http://www.w3.org/1999/xlink" x="0px" y="0px"
	 viewBox="0 0 27 27" style="enable-background:new 0 0 27 27;" xml:space="preserve">
<style type="text/css">
	.st0{fill:#FFFFFF;}
</style>
<path class="st0" d="M20.7,27c0,0-19.9,0-20,0c-0.4,0-0.7-0.3-0.8-0.7L0,6.2c0.1-0.4,0.4-0.7,0.8-0.7c0,0,20,0,20,0
	c0.4,0,0.7,0.3,0.8,0.7l0,20.1C21.5,26.7,21.2,27,20.7,27L20.7,27z M19.2,24.6V7.8H2.4v16.8H19.2z M21.9,21.5v-2.4l2.7,0V2.4H7.9
	v2.7H5.5V0H27v21.5H21.9z"/>
<path id="ic_doc_copy" class="st0" d="M22.4,19.7V21h4.1V0.5H6v4.1h1.4V1.9h17.8v17.8L22.4,19.7L22.4,19.7z M0.5,6.2v20.1
	c0,0.1,0.1,0.2,0.3,0.2h20c0.1,0,0.3-0.1,0.3-0.2V6.2c0-0.1-0.1-0.2-0.3-0.2h-20C0.6,6,0.5,6.1,0.5,6.2z M1.9,7.3h17.8v17.8H1.9V7.3
	L1.9,7.3z"/>
</svg>
